<svg width="48" height="49" viewBox="0 0 48 49" fill="none" xmlns="http://www.w3.org/2000/svg">
<rect y="0.865723" width="48" height="48" rx="16" fill="#FF8311"/>
<path d="M17.25 16.9907H21.75M17.25 24.8657H30.75M17.25 29.3657H30.75M17.25 33.8657H21.75M15 39.4907H33C33.5967 39.4907 34.169 39.2537 34.591 38.8317C35.0129 38.4098 35.25 37.8375 35.25 37.2407V12.4907C35.25 11.894 35.0129 11.3217 34.591 10.8997C34.169 10.4778 33.5967 10.2407 33 10.2407H15C14.4033 10.2407 13.831 10.4778 13.409 10.8997C12.9871 11.3217 12.75 11.894 12.75 12.4907V37.2407C12.75 37.8375 12.9871 38.4098 13.409 38.8317C13.831 39.2537 14.4033 39.4907 15 39.4907Z" stroke="#F9F4E1" stroke-width="2" stroke-linecap="round" stroke-linejoin="round"/>
<path d="M30.75 17.5532C31.0607 17.5532 31.3125 17.3014 31.3125 16.9907C31.3125 16.6801 31.0607 16.4282 30.75 16.4282C30.4393 16.4282 30.1875 16.6801 30.1875 16.9907C30.1875 17.3014 30.4393 17.5532 30.75 17.5532Z" fill="#F9F4E1" stroke="#F9F4E1"/>
</svg>
