<svg width="17" height="30" viewBox="0 0 17 30" fill="none" xmlns="http://www.w3.org/2000/svg">
<path d="M5.05134 16.4822C4.36523 16.4822 3.73329 16.4822 3.08329 16.4822C2.54162 16.4822 1.99995 16.4822 1.45829 16.4822C0.898563 16.4822 0.699951 16.3017 0.699951 15.7419C0.699951 14.2794 0.699951 12.7989 0.699951 11.3364C0.699951 10.7767 0.898563 10.5961 1.45829 10.5961C2.50551 10.5961 3.55273 10.5961 4.59995 10.5961C4.72634 10.5961 4.85273 10.5961 5.03329 10.5961C5.03329 10.4336 5.03329 10.3072 5.03329 10.1628C5.05134 8.82666 5.01523 7.47249 5.12356 6.13638C5.41245 2.74193 8.01245 0.322489 11.4069 0.214155C12.7972 0.159988 14.1875 0.1961 15.5777 0.214155C16.0652 0.214155 16.2638 0.412766 16.2638 0.900267C16.2638 2.27249 16.2638 3.64471 16.2638 5.03499C16.2638 5.5586 16.0833 5.75721 15.5416 5.75721C14.5847 5.77527 13.6277 5.77527 12.6888 5.79332C11.6236 5.79332 11.1722 6.22666 11.1541 7.27388C11.1361 8.33916 11.1541 9.40443 11.1541 10.5239C11.3166 10.5239 11.443 10.5239 11.5694 10.5239C12.7791 10.5239 13.9888 10.5239 15.1986 10.5239C15.9569 10.5239 16.1375 10.7044 16.1375 11.4447C16.1375 12.853 16.1375 14.2433 16.1375 15.6517C16.1375 16.2836 15.975 16.4461 15.343 16.4461C13.9708 16.4461 12.5986 16.4461 11.1541 16.4461C11.1541 16.6086 11.1541 16.753 11.1541 16.8975C11.1541 20.5808 11.1541 24.2642 11.1541 27.9475C11.1541 28.9586 11.0458 29.0669 10.0166 29.0669C8.66245 29.0669 7.30829 29.0669 5.95412 29.0669C5.2319 29.0669 5.05134 28.8864 5.05134 28.1822C5.05134 24.4447 5.05134 20.7072 5.05134 16.9517C5.05134 16.8072 5.05134 16.6808 5.05134 16.4822Z" fill="#F5F5F5"/>
</svg>
