<svg width="146" height="138" viewBox="0 0 146 138" fill="none" xmlns="http://www.w3.org/2000/svg">
<rect width="251.598" height="42.0732" transform="translate(20.4941 -56.3781) rotate(45)" fill="#F3D52A"/>
<path d="M68.9401 22.4065L71.0784 24.5448L73.2846 22.3386L74.5517 23.6058L72.3456 25.8119L74.4952 27.9615L73.262 29.1947L71.1124 27.0451L68.8949 29.2626L67.6278 27.9955L69.8452 25.778L67.707 23.6397L68.9401 22.4065ZM80.751 33.3801L81.9841 34.6133C82.7648 35.3939 83.6925 35.4166 84.3827 34.7264C85.0954 34.0137 85.0615 33.0973 84.2808 32.3166L83.0476 31.0834L80.751 33.3801ZM80.8302 36.152L79.3933 34.7151L76.3725 37.7359L74.8113 36.1746L82.8327 28.1532L85.8308 31.1513C87.4147 32.7352 87.4147 34.8396 85.9666 36.2877C84.5071 37.7472 82.4141 37.7359 80.8302 36.152ZM86.6625 48.0259L81.6393 43.0026L89.6607 34.9812L94.684 40.0044L93.2132 41.4752L89.7512 38.0132L87.9184 39.8461L91.0523 42.98L89.6607 44.3715L86.5268 41.2376L84.6713 43.0931L88.1333 46.5551L86.6625 48.0259ZM91.2336 49.7007L92.4781 50.9452C93.7905 52.2575 95.7026 52.5404 97.4449 50.7981C99.1872 49.0558 98.927 47.1438 97.6146 45.8314L96.3587 44.5755L91.2336 49.7007ZM91.0866 52.4499L88.2242 49.5875L96.2456 41.5661L99.1193 44.4398C101.405 46.7251 101.597 49.8817 99.0627 52.4159C96.5285 54.9502 93.3719 54.7353 91.0866 52.4499ZM97.9951 59.3584L96.4112 57.7745L104.433 49.7531L106.016 51.337L97.9951 59.3584ZM102.835 61.3016L104.079 62.5461C105.392 63.8585 107.304 64.1414 109.046 62.3991C110.788 60.6567 110.528 58.7447 109.216 57.4323L107.96 56.1765L102.835 61.3016ZM102.688 64.0509L99.8252 61.1885L107.847 53.1671L110.72 56.0407C113.006 58.3261 113.198 61.4826 110.664 64.0169C108.129 66.5512 104.973 66.3362 102.688 64.0509ZM113.171 66.5018C111.361 68.312 111.768 70.4389 113.001 71.6721C114.246 72.9166 116.373 73.3239 118.183 71.5137C119.993 69.7036 119.586 67.5766 118.342 66.3321C117.108 65.0989 114.981 64.6916 113.171 66.5018ZM111.542 64.8952C114.133 62.3044 117.674 62.6551 119.846 64.8273C122.03 67.0109 122.381 70.5521 119.79 73.1429C117.21 75.7224 113.669 75.3717 111.485 73.1882C109.313 71.0159 108.962 67.4748 111.542 64.8952Z" fill="#323D4A"/>
</svg>
