<svg width="146" height="138" viewBox="0 0 146 138" fill="none" xmlns="http://www.w3.org/2000/svg">
<rect width="251.598" height="42.0732" transform="translate(20.921 -56.3781) rotate(45)" fill="#323D4A"/>
<path d="M60.5062 13.5456L62.6445 15.6839L64.8507 13.4777L66.1178 14.7448L63.9116 16.951L66.0612 19.1006L64.828 20.3338L62.6784 18.1842L60.4609 20.4017L59.1938 19.1345L61.4113 16.9171L59.273 14.7788L60.5062 13.5456ZM67.1103 28.3861C64.8702 26.1459 64.6213 22.6613 67.1782 20.1044C69.7351 17.5475 73.2989 17.853 75.4485 20.0026C77.666 22.2201 77.451 24.7204 76.4667 26.3383L74.5321 25.3314C75.1091 24.3697 75.3354 22.8989 73.9438 21.5073C72.7445 20.3081 70.6175 19.9008 68.796 21.7223C67.0877 23.4307 67.3479 25.5689 68.6376 26.8587C70.0066 28.2277 71.5679 28.0014 72.5296 27.4696L73.5478 29.3704C72.0091 30.2981 69.3617 30.6375 67.1103 28.3861ZM77.37 30.2736C75.5598 32.0838 75.9671 34.2108 77.2003 35.444C78.4448 36.6885 80.5718 37.0958 82.3819 35.2856C84.1921 33.4754 83.7848 31.3484 82.5403 30.1039C81.3071 28.8707 79.1802 28.4634 77.37 30.2736ZM75.7408 28.667C78.3316 26.0762 81.8728 26.4269 84.0451 28.5992C86.2286 30.7827 86.5793 34.3239 83.9885 36.9147C81.409 39.4943 77.8678 39.1435 75.6842 36.96C73.512 34.7878 73.1613 31.2466 75.7408 28.667ZM90.2862 51.2225L88.7475 49.6838L94.3704 44.0609L86.4395 47.3759L85.1384 46.0748L88.4081 38.1891L82.8304 43.7668L81.337 42.2734L89.3584 34.252L91.4175 36.311L88.0347 44.5135L96.1806 41.0741L98.3076 43.2011L90.2862 51.2225ZM98.0601 50.2623L99.2933 51.4955C100.074 52.2761 101.002 52.2987 101.692 51.6086C102.405 50.8958 102.371 49.9794 101.59 49.1988L100.357 47.9656L98.0601 50.2623ZM98.1393 53.0341L96.7025 51.5973L93.6817 54.618L92.1204 53.0567L100.142 45.0353L103.14 48.0335C104.724 49.6174 104.724 51.7217 103.276 53.1699C101.816 54.6294 99.7232 54.618 98.1393 53.0341ZM104.085 65.0212L98.9484 59.8847L106.97 51.8633L108.531 53.4246L102.003 59.9526L105.578 63.5278L104.085 65.0212ZM110.303 71.2388L105.279 66.2156L113.301 58.1941L118.324 63.2174L116.853 64.6882L113.391 61.2262L111.558 63.059L114.692 66.1929L113.301 67.5845L110.167 64.4506L108.311 66.3061L111.773 69.7681L110.303 71.2388ZM124.442 72.2995L121.908 69.7652L115.368 76.3046L113.796 74.732L120.335 68.1926L117.801 65.6584L119.283 64.1763L125.924 70.8174L124.442 72.2995ZM123.703 84.6395L124.868 82.1392L121.61 78.8808L119.11 80.0461L117.458 78.3943L128.557 73.4502L130.367 75.2604L125.4 86.3366L123.703 84.6395ZM127.697 76.0524L123.556 77.9757L125.774 80.1932L127.697 76.0524Z" fill="#F9F4E1"/>
</svg>
