<svg width="45" height="45" viewBox="0 0 45 45" fill="none" xmlns="http://www.w3.org/2000/svg">
<path d="M26.8694 37.0857H18.1667C17.9861 37.0857 17.8055 37.0495 17.643 37.0495C16.4875 37.0134 15.35 36.9773 14.2125 36.7065C11.8111 36.1287 10.0417 34.7745 8.97638 32.5357C8.32638 31.1454 8.12776 29.6468 8.10971 28.1301C8.0736 25.0065 8.05554 21.9009 8.05554 18.7773C8.05554 17.2787 8.05554 15.7801 8.43471 14.3176C9.06665 11.7537 10.5653 9.9301 13.0208 8.93704C14.3389 8.39538 15.7292 8.25093 17.1375 8.23288C20.0805 8.19677 23.0236 8.17871 25.9486 8.17871C27.4833 8.17871 29.0361 8.17871 30.5708 8.50371C33.3694 9.1176 35.3375 10.7245 36.3305 13.4509C36.8 14.769 36.9264 16.1412 36.9264 17.5134C36.9264 20.8537 36.9444 24.1759 36.9264 27.5162C36.9264 28.4551 36.8361 29.412 36.6917 30.3509C36.3847 32.2648 35.5361 33.9079 34.0194 35.1537C32.5389 36.3634 30.8055 36.869 28.9278 36.9954C28.2417 37.0495 27.5555 37.0676 26.8694 37.1037V37.0857ZM22.518 34.5218V34.4857C23.2764 34.4857 24.0528 34.5037 24.8111 34.4857C26.4542 34.4315 28.1153 34.4495 29.7403 34.2329C31.9611 33.944 33.4597 32.662 34.0194 30.4412C34.2361 29.5565 34.3083 28.6176 34.3264 27.6968C34.3805 25.0065 34.3986 22.3343 34.3805 19.644C34.3805 18.2357 34.3264 16.8273 34.1639 15.437C33.893 13.1079 32.4305 11.537 30.1375 11.0676C29.1444 10.869 28.0972 10.8148 27.0861 10.7968C24.3778 10.7607 21.6514 10.7607 18.943 10.7968C17.6792 10.7968 16.4153 10.8509 15.1694 11.0315C12.9667 11.3565 11.45 12.7829 11.0167 14.9676C10.818 15.9065 10.7639 16.8815 10.7458 17.8565C10.6917 20.1857 10.6736 22.5329 10.7097 24.862C10.7097 26.487 10.7639 28.112 10.9264 29.719C11.0889 31.3801 11.8833 32.7162 13.3639 33.5829C14.2667 34.1065 15.2778 34.3232 16.3069 34.3593C18.3833 34.4315 20.4778 34.4676 22.5542 34.5218H22.518Z" fill="#F5F5F5"/>
<path d="M15.0792 22.6225C15.0792 18.5239 18.4194 15.1836 22.5181 15.1836C26.6347 15.1836 29.9208 18.4878 29.9389 22.6044C29.9389 26.703 26.6167 30.0433 22.5181 30.0614C18.4194 30.0614 15.0792 26.7211 15.0792 22.6225V22.6225ZM22.5181 27.4433C25.1903 27.4433 27.3389 25.2947 27.3389 22.6405C27.3389 19.9683 25.2083 17.8197 22.5361 17.8197C19.8639 17.8197 17.6972 19.9683 17.6972 22.6405C17.6972 25.3128 19.8458 27.4433 22.5181 27.4433Z" fill="#F5F5F5"/>
<path d="M30.2819 13.1614C31.2569 13.1795 31.9972 13.9739 31.9791 14.9489C31.9611 15.9059 31.1666 16.6462 30.2097 16.6281C29.2527 16.6281 28.4944 15.8156 28.5125 14.8406C28.5305 13.9017 29.325 13.1434 30.2819 13.1614Z" fill="#F5F5F5"/>
</svg>
