<svg width="44" height="45" viewBox="0 0 44 45" fill="none" xmlns="http://www.w3.org/2000/svg">
<path d="M23.7422 37.0671H17.8755V17.8199H23.4933V20.4199C23.4933 20.4199 23.6 20.3658 23.6178 20.3477C24.8622 18.3255 26.7111 17.4227 28.9867 17.3505C30.3022 17.3144 31.5644 17.4769 32.7733 18.0546C34.32 18.7949 35.1911 20.0949 35.6711 21.7199C36.0622 23.0199 36.1867 24.356 36.2044 25.6921C36.2222 29.4116 36.2044 33.113 36.2222 36.8324C36.2222 36.8866 36.2222 36.9408 36.2222 37.031H30.3378C30.3378 36.9046 30.3378 36.7602 30.3378 36.6338C30.3378 33.4921 30.3378 30.3324 30.3378 27.1908C30.3378 26.4866 30.2844 25.7644 30.1422 25.0602C29.7867 23.0921 28.5244 22.4241 26.7111 22.6408C25.0578 22.8394 24.1511 23.8144 23.9022 25.6199C23.8133 26.288 23.76 26.956 23.76 27.6241C23.76 30.6394 23.76 33.6366 23.76 36.6519C23.76 36.7963 23.76 36.9227 23.76 37.1033L23.7422 37.0671Z" fill="#F5F5F5"/>
<path d="M8.25781 17.8018H14.1245V37.0309H8.25781V17.8018Z" fill="#F5F5F5"/>
<path d="M14.6045 11.6449C14.6045 13.5588 13.0934 15.1477 11.2267 15.1657C9.34226 15.1657 7.79559 13.5949 7.79559 11.663C7.79559 9.76712 9.32448 8.21434 11.1911 8.19629C13.0756 8.19629 14.6045 9.73101 14.6223 11.6449H14.6045Z" fill="#F5F5F5"/>
</svg>
