<svg width="48" height="48" viewBox="0 0 48 48" fill="none" xmlns="http://www.w3.org/2000/svg">
<circle opacity="0.4" cx="24" cy="24" r="24" fill="#FF8311"/>
<circle cx="24" cy="24" r="18" fill="#FF8311"/>
<path d="M22.992 25.936L21.284 23.248L26.044 19.16H18.092V15.828H30.944V18.936L26.24 22.856C28.984 22.968 31.504 25.068 31.504 28.4C31.504 31.536 28.928 34.42 24.532 34.42C20.304 34.42 17.728 31.676 17.504 28.624L21.228 27.896C21.312 29.744 22.628 31.088 24.532 31.088C26.464 31.088 27.612 29.856 27.612 28.344C27.612 26.636 26.38 25.656 24.644 25.656C23.86 25.656 23.384 25.796 22.992 25.936Z" fill="#F9F4E1"/>
</svg>
