<svg width="48" height="48" viewBox="0 0 48 48" fill="none" xmlns="http://www.w3.org/2000/svg">
<circle opacity="0.4" cx="24" cy="24" r="24" fill="#FF8311"/>
<circle cx="24" cy="24" r="18" fill="#FF8311"/>
<path d="M21.844 22.856L18.176 22.744C18.12 22.492 18.036 21.932 18.036 21.484C18.036 18.292 20.444 15.408 24.672 15.408C28.732 15.408 31.224 18.096 31.224 21.26C31.224 23.612 29.936 25.516 27.696 26.888L24.196 29.016C23.496 29.464 22.908 29.968 22.628 30.668H31.336V34H17.896C17.924 30.808 18.932 28.204 22.18 26.244L25.176 24.452C26.716 23.528 27.332 22.576 27.332 21.316C27.332 20 26.408 18.824 24.588 18.824C22.656 18.824 21.704 20.14 21.704 21.848C21.704 22.184 21.76 22.548 21.844 22.856Z" fill="#F9F4E1"/>
</svg>
