<svg width="48" height="48" viewBox="0 0 48 48" fill="none" xmlns="http://www.w3.org/2000/svg">
<g clip-path="url(#clip0_653_171)">
<path opacity="0.4" d="M24 48C37.2548 48 48 37.2548 48 24C48 10.7452 37.2548 0 24 0C10.7452 0 0 10.7452 0 24C0 37.2548 10.7452 48 24 48Z" fill="#FF8311"/>
<path d="M24 42C33.9411 42 42 33.9411 42 24C42 14.0589 33.9411 6 24 6C14.0589 6 6 14.0589 6 24C6 33.9411 14.0589 42 24 42Z" fill="#FF8311"/>
<path d="M17.812 28.904L21.424 28.092C21.508 29.772 22.796 31.144 24.728 31.144C26.464 31.144 27.864 29.996 27.864 28.176C27.864 26.104 26.324 25.124 24.644 25.124C23.412 25.124 22.432 25.684 21.844 26.356C21.48 26.216 18.708 25.264 18.316 25.152L20.472 15.828H30.72V19.16H23.104L22.208 23.164C22.992 22.436 24.28 22.044 25.484 22.044C29.124 22.044 31.7 24.228 31.7 28.12C31.7 31.508 29.096 34.448 24.728 34.448C20.78 34.448 18.036 31.76 17.812 28.904Z" fill="#F9F4E1"/>
</g>
<defs>
<clipPath id="clip0_653_171">
<rect width="48" height="48" fill="white"/>
</clipPath>
</defs>
</svg>
