<svg width="101" height="101" viewBox="0 0 101 101" fill="none" xmlns="http://www.w3.org/2000/svg">
<rect width="101" height="101" rx="16" fill="#F3D52A"/>
<path d="M30.9904 51.448C30.9904 54.712 31.4704 57.496 32.6704 59.368C33.6304 60.904 35.1184 61.912 37.3744 61.912C39.6784 61.912 41.0704 60.904 42.0304 59.368C43.2784 57.496 43.7584 54.712 43.7584 51.448C43.7584 48.184 43.2784 45.4 42.0304 43.528C41.0704 41.992 39.6784 40.984 37.3744 40.984C35.1184 40.984 33.6304 41.992 32.6704 43.528C31.4704 45.4 30.9904 48.184 30.9904 51.448ZM24.3664 51.448C24.3664 47.464 24.9904 43.576 27.1024 40.36C29.1664 37.288 32.5264 35.128 37.3744 35.128C42.2224 35.128 45.5824 37.288 47.5984 40.36C49.7104 43.576 50.3824 47.464 50.3824 51.448C50.3824 55.432 49.7104 59.32 47.5984 62.536C45.5824 65.608 42.2224 67.768 37.3744 67.768C32.5264 67.768 29.1664 65.608 27.1024 62.536C24.9904 59.32 24.3664 55.432 24.3664 51.448ZM62.5298 53.176L59.6018 48.568L67.7618 41.56H54.1298V35.848H76.1618V41.176L68.0978 47.896C72.8018 48.088 77.1218 51.688 77.1218 57.4C77.1218 62.776 72.7058 67.72 65.1698 67.72C57.9218 67.72 53.5058 63.016 53.1218 57.784L59.5058 56.536C59.6498 59.704 61.9058 62.008 65.1698 62.008C68.4818 62.008 70.4498 59.896 70.4498 57.304C70.4498 54.376 68.3378 52.696 65.3618 52.696C64.0178 52.696 63.2018 52.936 62.5298 53.176Z" fill="#323D4A"/>
</svg>
