<svg width="101" height="101" viewBox="0 0 101 101" fill="none" xmlns="http://www.w3.org/2000/svg">
<rect width="101" height="101" rx="16" fill="#F3D52A"/>
<path d="M30.6545 51.448C30.6545 54.712 31.1345 57.496 32.3345 59.368C33.2945 60.904 34.7825 61.912 37.0385 61.912C39.3425 61.912 40.7345 60.904 41.6945 59.368C42.9425 57.496 43.4225 54.712 43.4225 51.448C43.4225 48.184 42.9425 45.4 41.6945 43.528C40.7345 41.992 39.3425 40.984 37.0385 40.984C34.7825 40.984 33.2945 41.992 32.3345 43.528C31.1345 45.4 30.6545 48.184 30.6545 51.448ZM24.0305 51.448C24.0305 47.464 24.6545 43.576 26.7665 40.36C28.8305 37.288 32.1905 35.128 37.0385 35.128C41.8865 35.128 45.2465 37.288 47.2625 40.36C49.3745 43.576 50.0465 47.464 50.0465 51.448C50.0465 55.432 49.3745 59.32 47.2625 62.536C45.2465 65.608 41.8865 67.768 37.0385 67.768C32.1905 67.768 28.8305 65.608 26.7665 62.536C24.6545 59.32 24.0305 55.432 24.0305 51.448ZM60.179 47.896L53.891 47.704C53.795 47.272 53.651 46.312 53.651 45.544C53.651 40.072 57.779 35.128 65.027 35.128C71.987 35.128 76.259 39.736 76.259 45.16C76.259 49.192 74.051 52.456 70.211 54.808L64.211 58.456C63.011 59.224 62.003 60.088 61.523 61.288H76.451V67H53.411C53.459 61.528 55.187 57.064 60.755 53.704L65.891 50.632C68.531 49.048 69.587 47.416 69.587 45.256C69.587 43 68.003 40.984 64.883 40.984C61.571 40.984 59.939 43.24 59.939 46.168C59.939 46.744 60.035 47.368 60.179 47.896Z" fill="#323D4A"/>
</svg>
