<svg width="101" height="101" viewBox="0 0 101 101" fill="none" xmlns="http://www.w3.org/2000/svg">
<rect width="101" height="101" rx="24" fill="#F3D52A"/>
<path d="M34.8576 51.448C34.8576 54.712 35.3376 57.496 36.5376 59.368C37.4976 60.904 38.9856 61.912 41.2416 61.912C43.5456 61.912 44.9376 60.904 45.8976 59.368C47.1456 57.496 47.6256 54.712 47.6256 51.448C47.6256 48.184 47.1456 45.4 45.8976 43.528C44.9376 41.992 43.5456 40.984 41.2416 40.984C38.9856 40.984 37.4976 41.992 36.5376 43.528C35.3376 45.4 34.8576 48.184 34.8576 51.448ZM28.2336 51.448C28.2336 47.464 28.8576 43.576 30.9696 40.36C33.0336 37.288 36.3936 35.128 41.2416 35.128C46.0896 35.128 49.4496 37.288 51.4656 40.36C53.5776 43.576 54.2496 47.464 54.2496 51.448C54.2496 55.432 53.5776 59.32 51.4656 62.536C49.4496 65.608 46.0896 67.768 41.2416 67.768C36.3936 67.768 33.0336 65.608 30.9696 62.536C28.8576 59.32 28.2336 55.432 28.2336 51.448ZM71.2551 67H64.6791V46.168H57.1911V41.704C61.7511 41.656 64.9191 39.112 65.5431 35.848H71.2551V67Z" fill="#323D4A"/>
</svg>
