<svg width="48" height="48" viewBox="0 0 48 48" fill="none" xmlns="http://www.w3.org/2000/svg">
<path d="M44.85 18.242C44.6683 17.6821 44.326 17.188 43.8655 16.8213C43.4051 16.4545 42.847 16.2313 42.2606 16.1795L31.125 15.2195L26.76 4.83949C26.5327 4.29483 26.1494 3.82959 25.6583 3.50235C25.1671 3.1751 24.5902 3.00049 24 3.00049C23.4098 3.00049 22.8329 3.1751 22.3417 3.50235C21.8506 3.82959 21.4673 4.29483 21.24 4.83949L16.8881 15.2195L5.73938 16.1851C5.15069 16.2346 4.58972 16.4568 4.1268 16.8238C3.66388 17.1908 3.31962 17.6863 3.1372 18.2482C2.95477 18.8101 2.94231 19.4133 3.10135 19.9823C3.2604 20.5512 3.58389 21.0605 4.03125 21.4464L12.4894 28.8376L9.95437 39.8139C9.82033 40.3883 9.85858 40.9894 10.0643 41.5422C10.2701 42.095 10.6342 42.5748 11.1112 42.9218C11.5882 43.2687 12.1569 43.4673 12.7462 43.4928C13.3355 43.5183 13.9192 43.3696 14.4244 43.0651L23.9869 37.2526L33.57 43.0651C34.0752 43.3696 34.6589 43.5183 35.2482 43.4928C35.8374 43.4673 36.4061 43.2687 36.8831 42.9218C37.3601 42.5748 37.7243 42.095 37.93 41.5422C38.1358 40.9894 38.174 40.3883 38.04 39.8139L35.5069 28.8264L43.9631 21.4464C44.4104 21.0592 44.7333 20.5484 44.8911 19.9783C45.0489 19.4081 45.0346 18.804 44.85 18.242ZM41.9962 19.1795L33.54 26.5595C33.1284 26.9175 32.8223 27.3809 32.6544 27.8999C32.4866 28.419 32.4635 28.9739 32.5875 29.5051L35.1281 40.5001L25.5525 34.6876C25.0853 34.4031 24.5489 34.2526 24.0019 34.2526C23.4549 34.2526 22.9184 34.4031 22.4513 34.6876L12.8887 40.5001L15.4125 29.5126C15.5365 28.9814 15.5134 28.4265 15.3456 27.9074C15.1777 27.3884 14.8716 26.925 14.46 26.567L6 19.1907C5.99931 19.1851 5.99931 19.1795 6 19.1739L17.145 18.2101C17.6891 18.1622 18.2098 17.9665 18.651 17.6444C19.0921 17.3222 19.4369 16.8857 19.6481 16.382L24 6.01511L28.35 16.382C28.5613 16.8857 28.9061 17.3222 29.3472 17.6444C29.7883 17.9665 30.309 18.1622 30.8531 18.2101L42 19.1739V19.187L41.9962 19.1795Z" fill="#323D4A"/>
</svg>
