<svg width="64" height="64" viewBox="0 0 64 64" fill="none" xmlns="http://www.w3.org/2000/svg">
<rect width="64" height="64" rx="12" fill="#F3D52A"/>
<path d="M52.85 26.242C52.6684 25.6821 52.326 25.188 51.8656 24.8213C51.4051 24.4545 50.847 24.2313 50.2606 24.1795L39.125 23.2195L34.76 12.8395C34.5328 12.2948 34.1494 11.8296 33.6583 11.5023C33.1672 11.1751 32.5902 11.0005 32 11.0005C31.4098 11.0005 30.8329 11.1751 30.3417 11.5023C29.8506 11.8296 29.4673 12.2948 29.24 12.8395L24.8881 23.2195L13.7394 24.1851C13.1507 24.2346 12.5897 24.4568 12.1268 24.8238C11.6639 25.1908 11.3196 25.6863 11.1372 26.2482C10.9548 26.8101 10.9423 27.4133 11.1014 27.9823C11.2604 28.5512 11.5839 29.0605 12.0313 29.4464L20.4894 36.8376L17.9544 47.8139C17.8203 48.3883 17.8586 48.9894 18.0644 49.5422C18.2701 50.095 18.6343 50.5748 19.1113 50.9218C19.5883 51.2687 20.1569 51.4674 20.7462 51.4928C21.3355 51.5183 21.9192 51.3696 22.4244 51.0651L31.9869 45.2526L41.57 51.0651C42.0752 51.3696 42.6589 51.5183 43.2482 51.4928C43.8375 51.4674 44.4062 51.2687 44.8832 50.9218C45.3601 50.5748 45.7243 50.095 45.93 49.5422C46.1358 48.9894 46.1741 48.3883 46.04 47.8139L43.5069 36.8264L51.9631 29.4464C52.4104 29.0592 52.7333 28.5484 52.8911 27.9783C53.0489 27.4081 53.0346 26.804 52.85 26.242ZM49.9963 27.1795L41.54 34.5595C41.1285 34.9175 40.8223 35.3809 40.6545 35.8999C40.4866 36.419 40.4635 36.9739 40.5875 37.5051L43.1281 48.5001L33.5525 42.6876C33.0853 42.4031 32.5489 42.2526 32.0019 42.2526C31.4549 42.2526 30.9184 42.4031 30.4513 42.6876L20.8888 48.5001L23.4125 37.5126C23.5365 36.9814 23.5134 36.4265 23.3456 35.9074C23.1777 35.3884 22.8716 34.925 22.46 34.567L14 27.1907C13.9993 27.1851 13.9993 27.1795 14 27.1739L25.145 26.2101C25.6891 26.1622 26.2099 25.9665 26.651 25.6444C27.0921 25.3222 27.4369 24.8857 27.6481 24.382L32 14.0151L36.35 24.382C36.5613 24.8857 36.9061 25.3222 37.3472 25.6444C37.7883 25.9665 38.309 26.1622 38.8531 26.2101L50 27.1739V27.187L49.9963 27.1795Z" fill="#323D4A"/>
</svg>
