<svg width="48" height="48" viewBox="0 0 48 48" fill="none" xmlns="http://www.w3.org/2000/svg">
<rect width="48" height="48" rx="8" fill="#FF8542"/>
<g clip-path="url(#clip0_127_377)">
<path d="M30.6909 15.5974C29.6966 14.5985 29.1487 13.3157 29.1491 11.9878H24.6545V27.8598C24.6199 28.7187 24.2078 29.5323 23.5051 30.1292C22.8024 30.726 21.8639 31.0597 20.8873 31.0598C18.8218 31.0598 17.1055 29.575 17.1055 27.7318C17.1055 25.5302 19.52 23.879 22.0073 24.5574V20.5126C16.9891 19.9238 12.5964 23.3542 12.5964 27.7318C12.5964 31.9942 16.6109 35.0278 20.8727 35.0278C25.44 35.0278 29.1491 31.7638 29.1491 27.7318V19.6806C30.9716 20.8324 33.1598 21.4504 35.4036 21.447V17.4918C35.4036 17.4918 32.6691 17.607 30.6909 15.5974Z" fill="#F9F4E1"/>
</g>
<defs>
<clipPath id="clip0_127_377">
<rect width="24" height="24" fill="white" transform="translate(12 11.6914)"/>
</clipPath>
</defs>
</svg>
