<svg width="48" height="49" viewBox="0 0 48 49" fill="none" xmlns="http://www.w3.org/2000/svg">
<rect y="0.41333" width="48" height="48" rx="16" fill="#FF8311"/>
<path d="M24 10.0134C22.0905 10.0134 20.2591 10.772 18.9089 12.1223C17.5586 13.4725 16.8 15.3039 16.8 17.2134C16.8 19.123 17.5586 20.9543 18.9089 22.3046C20.2591 23.6549 22.0905 24.4134 24 24.4134C25.9096 24.4134 27.7409 23.6549 29.0912 22.3046C30.4415 20.9543 31.2 19.123 31.2 17.2134C31.2 15.3039 30.4415 13.4725 29.0912 12.1223C27.7409 10.772 25.9096 10.0134 24 10.0134ZM18.6 17.2134C18.6 15.7813 19.169 14.4077 20.1816 13.3951C21.1943 12.3824 22.5679 11.8134 24 11.8134C25.4322 11.8134 26.8057 12.3824 27.8184 13.3951C28.8311 14.4077 29.4 15.7813 29.4 17.2134C29.4 18.6456 28.8311 20.0191 27.8184 21.0318C26.8057 22.0445 25.4322 22.6134 24 22.6134C22.5679 22.6134 21.1943 22.0445 20.1816 21.0318C19.169 20.0191 18.6 18.6456 18.6 17.2134ZM15.0162 26.2134C14.5422 26.2115 14.0724 26.3032 13.6339 26.4833C13.1953 26.6633 12.7967 26.9282 12.4607 27.2626C12.1247 27.5971 11.8581 27.9946 11.6761 28.4323C11.4941 28.87 11.4003 29.3394 11.4 29.8134C11.4 32.8572 12.8994 35.1522 15.243 36.648C17.5506 38.1186 20.661 38.8134 24 38.8134C27.339 38.8134 30.4494 38.1186 32.757 36.648C35.1006 35.154 36.6 32.8554 36.6 29.8134C36.6 28.8586 36.2207 27.943 35.5456 27.2678C34.8705 26.5927 33.9548 26.2134 33 26.2134H15.0162ZM13.2 29.8134C13.2 28.818 14.0064 28.0134 15.0162 28.0134H33C33.4774 28.0134 33.9353 28.2031 34.2728 28.5406C34.6104 28.8782 34.8 29.336 34.8 29.8134C34.8 32.1696 33.6804 33.9246 31.7886 35.1288C29.8626 36.3582 27.123 37.0134 24 37.0134C20.877 37.0134 18.1374 36.3582 16.2114 35.1288C14.3214 33.9228 13.2 32.1714 13.2 29.8134Z" fill="#F9F4E1"/>
</svg>
