<svg width="48" height="48" viewBox="0 0 48 48" fill="none" xmlns="http://www.w3.org/2000/svg">
<rect width="48" height="48" rx="8" fill="#FF8542"/>
<path d="M21.6667 28.0247L28.5867 24.0247L21.6667 20.0247V28.0247ZM37.08 17.5847C37.2533 18.2114 37.3733 19.0514 37.4533 20.1181C37.5467 21.1847 37.5867 22.1047 37.5867 22.9047L37.6667 24.0247C37.6667 26.9447 37.4533 29.0914 37.08 30.4647C36.7467 31.6647 35.9733 32.4381 34.7733 32.7714C34.1467 32.9447 33 33.0647 31.24 33.1447C29.5067 33.2381 27.92 33.2781 26.4533 33.2781L24.3333 33.3581C18.7467 33.3581 15.2667 33.1447 13.8933 32.7714C12.6933 32.4381 11.92 31.6647 11.5867 30.4647C11.4133 29.8381 11.2933 28.9981 11.2133 27.9314C11.12 26.8647 11.08 25.9447 11.08 25.1447L11 24.0247C11 21.1047 11.2133 18.9581 11.5867 17.5847C11.92 16.3847 12.6933 15.6114 13.8933 15.2781C14.52 15.1047 15.6667 14.9847 17.4267 14.9047C19.16 14.8114 20.7467 14.7714 22.2133 14.7714L24.3333 14.6914C29.92 14.6914 33.4 14.9047 34.7733 15.2781C35.9733 15.6114 36.7467 16.3847 37.08 17.5847Z" fill="#F9F4E1"/>
</svg>
